#Comment line ignore any data following # character 
#Hierarchical Translation and Rotation (.htr) file 
[Header]	
#Header keywords are followed by a single value 
FileType HTR		#Single word string
DataType HTRS		#Translation followed by rotation and scale data
FileVersion 1		#integer
NumSegments 84		#integer
NumFrames 2		#integer
DataFrameRate 30		#integer, data frame rate in this file
EulerRotationOrder ZYX
CalibrationUnits mm
RotationUnits Degrees
GlobalAxisofGravity Y
BoneLengthAxis Y
ScaleFactor 1.00
[SegmentNames&Hierarchy]
#CHILD	PARENT
MASTER GLOBAL
root MASTER
chest root
L_mid_tent01 root
R_mid_tent01 root
spine01 root
Bip01_Neck chest
L_humerus chest
R_humerus chest
weapon_bone chest
Bip01_Head Bip01_Neck
eye_left_bone Bip01_Head
eye_right_bone Bip01_Head
L_forearm L_humerus
L_front_hand L_forearm
L_weapon_bone L_forearm
L_front_hand01_01 L_front_hand
L_front_hand02_01 L_front_hand
L_front_hand03_01 L_front_hand
L_front_hand01_02 L_front_hand01_01
L_front_hand02_02 L_front_hand02_01
L_front_hand03_02 L_front_hand03_01
R_forearm R_humerus
R_front_hand R_forearm
R_weapon_bone R_forearm
R_front_hand01_01 R_front_hand
R_front_hand02_01 R_front_hand
R_front_hand03_01 R_front_hand
R_front_hand01_02 R_front_hand01_01
R_front_hand02_02 R_front_hand02_01
R_front_hand03_02 R_front_hand03_01
null_rope01_connect L_mid_tent01
Rope1_Seg01 null_rope01_connect
Rope1_Seg02 Rope1_Seg01
Rope1_Seg03 Rope1_Seg02
Rope1_Seg04 Rope1_Seg03
Rope1_Seg05 Rope1_Seg04
Rope1_Seg06 Rope1_Seg05
Rope1_Seg07 Rope1_Seg06
Rope1_Seg09 Rope1_Seg07
L_mid_hand01 Rope1_Seg09
L_mid_hand02 Rope1_Seg09
L_mid_hand03 Rope1_Seg09
null_rope02_connect R_mid_tent01
Rope2_Seg01 null_rope02_connect
Rope2_Seg02 Rope2_Seg01
Rope2_Seg03 Rope2_Seg02
Rope2_Seg04 Rope2_Seg03
Rope2_Seg05 Rope2_Seg04
Rope2_Seg06 Rope2_Seg05
Rope2_Seg07 Rope2_Seg06
Rope2_Seg09 Rope2_Seg07
R_mid_hand01 Rope2_Seg09
R_mid_hand02 Rope2_Seg09
R_mid_hand03 Rope2_Seg09
spine02 spine01
spine03 spine02
pelvis spine03
null_rope03_connect pelvis
null_rope04_connect pelvis
Rope3_Seg01 null_rope03_connect
Rope3_Seg02 Rope3_Seg01
Rope3_Seg03 Rope3_Seg02
Rope3_Seg04 Rope3_Seg03
Rope3_Seg05 Rope3_Seg04
Rope3_Seg06 Rope3_Seg05
Rope3_Seg07 Rope3_Seg06
Rope3_Seg08 Rope3_Seg07
Rope3_Seg09 Rope3_Seg08
R_rear_hand01 Rope3_Seg09
R_rear_hand02 Rope3_Seg09
R_rear_hand03 Rope3_Seg09
Rope4_Seg01 null_rope04_connect
Rope4_Seg02 Rope4_Seg01
Rope4_Seg03 Rope4_Seg02
Rope4_Seg04 Rope4_Seg03
Rope4_Seg05 Rope4_Seg04
Rope4_Seg06 Rope4_Seg05
Rope4_Seg07 Rope4_Seg06
Rope4_Seg08 Rope4_Seg07
Rope4_Seg09 Rope4_Seg08
L_rear_hand01 Rope4_Seg09
L_rear_hand02 Rope4_Seg09
L_rear_hand03 Rope4_Seg09
[BasePosition]
#SegmentName Tx, Ty, Tz, Rx, Ry, Rz, BoneLength
MASTER 0.000000 0.000000 0.000000 -90.000000 0.000000 0.000000 10.000000 
root 0.000000 0.000000 0.000000 0.000000 0.000000 0.000000 10.000000 
chest 0.000000 0.000000 0.000000 0.000000 0.000000 0.000000 10.000000 
L_mid_tent01 0.000000 0.000000 0.000000 0.000000 0.000000 0.000000 10.000000 
R_mid_tent01 0.000000 0.000000 0.000000 0.000000 0.000000 0.000000 10.000000 
spine01 0.000000 0.000000 0.000000 0.000000 0.000000 0.000000 10.000000 
Bip01_Neck 0.000000 0.000000 0.000000 0.000000 0.000000 0.000000 10.000000 
L_humerus 0.000000 0.000000 0.000000 0.000000 0.000000 0.000000 10.000000 
R_humerus 0.000000 0.000000 0.000000 0.000000 0.000000 0.000000 10.000000 
weapon_bone 0.000000 0.000000 0.000000 0.000000 0.000000 0.000000 10.000000 
Bip01_Head 0.000000 0.000000 0.000000 0.000000 0.000000 0.000000 10.000000 
eye_left_bone 0.000000 0.000000 0.000000 0.000000 0.000000 0.000000 10.000000 
eye_right_bone 0.000000 0.000000 0.000000 0.000000 0.000000 0.000000 10.000000 
L_forearm 0.000000 0.000000 0.000000 0.000000 0.000000 0.000000 10.000000 
L_front_hand 0.000000 0.000000 0.000000 0.000000 0.000000 0.000000 10.000000 
L_weapon_bone 0.000000 0.000000 0.000000 0.000000 0.000000 0.000000 10.000000 
L_front_hand01_01 0.000000 0.000000 0.000000 0.000000 0.000000 0.000000 10.000000 
L_front_hand02_01 0.000000 0.000000 0.000000 0.000000 0.000000 0.000000 10.000000 
L_front_hand03_01 0.000000 0.000000 0.000000 0.000000 0.000000 0.000000 10.000000 
L_front_hand01_02 0.000000 0.000000 0.000000 0.000000 0.000000 0.000000 10.000000 
L_front_hand02_02 0.000000 0.000000 0.000000 0.000000 0.000000 0.000000 10.000000 
L_front_hand03_02 0.000000 0.000000 0.000000 0.000000 0.000000 0.000000 10.000000 
R_forearm 0.000000 0.000000 0.000000 0.000000 0.000000 0.000000 10.000000 
R_front_hand 0.000000 0.000000 0.000000 0.000000 0.000000 0.000000 10.000000 
R_weapon_bone 0.000000 0.000000 0.000000 0.000000 0.000000 0.000000 10.000000 
R_front_hand01_01 0.000000 0.000000 0.000000 0.000000 0.000000 0.000000 10.000000 
R_front_hand02_01 0.000000 0.000000 0.000000 0.000000 0.000000 0.000000 10.000000 
R_front_hand03_01 0.000000 0.000000 0.000000 0.000000 0.000000 0.000000 10.000000 
R_front_hand01_02 0.000000 0.000000 0.000000 0.000000 0.000000 0.000000 10.000000 
R_front_hand02_02 0.000000 0.000000 0.000000 0.000000 0.000000 0.000000 10.000000 
R_front_hand03_02 0.000000 0.000000 0.000000 0.000000 0.000000 0.000000 10.000000 
null_rope01_connect 0.000000 0.000000 0.000000 0.000000 0.000000 0.000000 10.000000 
Rope1_Seg01 0.000000 0.000000 0.000000 0.000000 0.000000 0.000000 10.000000 
Rope1_Seg02 0.000000 0.000000 0.000000 0.000000 0.000000 0.000000 10.000000 
Rope1_Seg03 0.000000 0.000000 0.000000 0.000000 0.000000 0.000000 10.000000 
Rope1_Seg04 0.000000 0.000000 0.000000 0.000000 0.000000 0.000000 10.000000 
Rope1_Seg05 0.000000 0.000000 0.000000 0.000000 0.000000 0.000000 10.000000 
Rope1_Seg06 0.000000 0.000000 0.000000 0.000000 0.000000 0.000000 10.000000 
Rope1_Seg07 0.000000 0.000000 0.000000 0.000000 0.000000 0.000000 10.000000 
Rope1_Seg09 0.000000 0.000000 0.000000 0.000000 0.000000 0.000000 10.000000 
L_mid_hand01 0.000000 0.000000 0.000000 0.000000 0.000000 0.000000 10.000000 
L_mid_hand02 0.000000 0.000000 0.000000 0.000000 0.000000 0.000000 10.000000 
L_mid_hand03 0.000000 0.000000 0.000000 0.000000 0.000000 0.000000 10.000000 
null_rope02_connect 0.000000 0.000000 0.000000 0.000000 0.000000 0.000000 10.000000 
Rope2_Seg01 0.000000 0.000000 0.000000 0.000000 0.000000 0.000000 10.000000 
Rope2_Seg02 0.000000 0.000000 0.000000 0.000000 0.000000 0.000000 10.000000 
Rope2_Seg03 0.000000 0.000000 0.000000 0.000000 0.000000 0.000000 10.000000 
Rope2_Seg04 0.000000 0.000000 0.000000 0.000000 0.000000 0.000000 10.000000 
Rope2_Seg05 0.000000 0.000000 0.000000 0.000000 0.000000 0.000000 10.000000 
Rope2_Seg06 0.000000 0.000000 0.000000 0.000000 0.000000 0.000000 10.000000 
Rope2_Seg07 0.000000 0.000000 0.000000 0.000000 0.000000 0.000000 10.000000 
Rope2_Seg09 0.000000 0.000000 0.000000 0.000000 0.000000 0.000000 10.000000 
R_mid_hand01 0.000000 0.000000 0.000000 0.000000 0.000000 0.000000 10.000000 
R_mid_hand02 0.000000 0.000000 0.000000 0.000000 0.000000 0.000000 10.000000 
R_mid_hand03 0.000000 0.000000 0.000000 0.000000 0.000000 0.000000 10.000000 
spine02 0.000000 0.000000 0.000000 0.000000 0.000000 0.000000 10.000000 
spine03 0.000000 0.000000 0.000000 0.000000 0.000000 0.000000 10.000000 
pelvis 0.000000 0.000000 0.000000 0.000000 0.000000 0.000000 10.000000 
null_rope03_connect 0.000000 0.000000 0.000000 0.000000 0.000000 0.000000 10.000000 
null_rope04_connect 0.000000 0.000000 0.000000 0.000000 0.000000 0.000000 10.000000 
Rope3_Seg01 0.000000 0.000000 0.000000 0.000000 0.000000 0.000000 10.000000 
Rope3_Seg02 0.000000 0.000000 0.000000 0.000000 0.000000 0.000000 10.000000 
Rope3_Seg03 0.000000 0.000000 0.000000 0.000000 0.000000 0.000000 10.000000 
Rope3_Seg04 0.000000 0.000000 0.000000 0.000000 0.000000 0.000000 10.000000 
Rope3_Seg05 0.000000 0.000000 0.000000 0.000000 0.000000 0.000000 10.000000 
Rope3_Seg06 0.000000 0.000000 0.000000 0.000000 0.000000 0.000000 10.000000 
Rope3_Seg07 0.000000 0.000000 0.000000 0.000000 0.000000 0.000000 10.000000 
Rope3_Seg08 0.000000 0.000000 0.000000 0.000000 0.000000 0.000000 10.000000 
Rope3_Seg09 0.000000 0.000000 0.000000 0.000000 0.000000 0.000000 10.000000 
R_rear_hand01 0.000000 0.000000 0.000000 0.000000 0.000000 0.000000 10.000000 
R_rear_hand02 0.000000 0.000000 0.000000 0.000000 0.000000 0.000000 10.000000 
R_rear_hand03 0.000000 0.000000 0.000000 0.000000 0.000000 0.000000 10.000000 
Rope4_Seg01 0.000000 0.000000 0.000000 0.000000 0.000000 0.000000 10.000000 
Rope4_Seg02 0.000000 0.000000 0.000000 0.000000 0.000000 0.000000 10.000000 
Rope4_Seg03 0.000000 0.000000 0.000000 0.000000 0.000000 0.000000 10.000000 
Rope4_Seg04 0.000000 0.000000 0.000000 0.000000 0.000000 0.000000 10.000000 
Rope4_Seg05 0.000000 0.000000 0.000000 0.000000 0.000000 0.000000 10.000000 
Rope4_Seg06 0.000000 0.000000 0.000000 0.000000 0.000000 0.000000 10.000000 
Rope4_Seg07 0.000000 0.000000 0.000000 0.000000 0.000000 0.000000 10.000000 
Rope4_Seg08 0.000000 0.000000 0.000000 0.000000 0.000000 0.000000 10.000000 
Rope4_Seg09 0.000000 0.000000 0.000000 0.000000 0.000000 0.000000 10.000000 
L_rear_hand01 0.000000 0.000000 0.000000 0.000000 0.000000 0.000000 10.000000 
L_rear_hand02 0.000000 0.000000 0.000000 0.000000 0.000000 0.000000 10.000000 
L_rear_hand03 0.000000 0.000000 0.000000 0.000000 0.000000 0.000000 10.000000 
#Beginning of Data. Separated by tabs
#Fr	Tx	Ty	Tz	Rx	Ry	Rz	SF
[MASTER]
1 0.000000 0.000000 0.000000 0.001660 0.001660 0.001660 0.000000
2 0.000000 0.000000 0.000000 0.001660 0.001660 0.001660 0.000000
[root]
1 -16.502245 -199.343781 1093.534668 -85.747307 -61.785324 -93.080719 1111.678223
2 -16.502245 -199.343781 1093.534668 -85.747307 -61.785316 -93.080688 1111.678223
[chest]
1 -84.512650 -34.090519 0.000000 2.351820 -1.564438 -123.862206 91.129311
2 -84.512650 -34.090519 0.000000 2.357682 -1.559847 -123.736816 91.129311
[L_mid_tent01]
1 27.299500 22.177483 -249.917984 -16.931425 0.775486 122.615433 252.380859
2 27.299500 22.177483 -249.917984 -16.904091 0.913709 123.585693 252.380859
[R_mid_tent01]
1 23.228794 24.509907 226.238495 -174.907974 1.879110 112.552567 228.744751
2 23.228794 24.509907 226.238495 -174.941132 1.913636 113.356316 228.744751
[spine01]
1 -0.361383 -0.195265 0.000000 -0.000001 -0.000007 22.052340 0.410763
2 -0.361383 -0.195265 0.000000 -0.000001 -0.000007 22.052340 0.410763
[Bip01_Neck]
1 165.484543 71.581718 0.000119 175.896118 1.177290 24.871183 180.302734
2 165.484543 71.581718 0.000119 175.896118 1.177290 24.871183 180.302734
[L_humerus]
1 -13.983130 -135.272980 -120.471481 -91.668327 0.804969 -167.458282 181.680161
2 -13.983130 -135.272980 -120.471481 -91.668335 0.804969 -167.458282 181.680161
[R_humerus]
1 -13.983309 -135.273102 125.287651 103.000740 1.729733 -169.272232 184.909012
2 -13.983309 -135.273102 125.287651 103.000740 1.729732 -169.272232 184.909012
[weapon_bone]
1 235.964890 -300.705902 0.000000 0.000000 -89.951546 -128.212341 382.234833
2 235.964890 -300.705902 0.000000 0.000000 -89.951546 -128.212341 382.234833
[Bip01_Head]
1 102.819824 23.735502 5.410404 3.150732 3.423701 -20.839092 105.662491
2 102.819824 23.735500 5.410404 3.150732 3.423701 -20.839092 105.662491
[eye_left_bone]
1 -24.626970 125.451866 -64.772606 0.000000 -90.000000 -99.840431 143.318359
2 -24.626970 125.451866 -64.772606 0.000000 -90.000000 -99.840431 143.318359
[eye_right_bone]
1 -24.626970 125.451866 64.327362 0.000000 -89.960434 80.159386 143.117676
2 -24.626970 125.451866 64.327362 0.000000 -89.972023 80.159393 143.117676
[L_forearm]
1 322.776093 0.000000 -0.000119 0.000017 0.002347 -89.149834 322.776093
2 322.776093 0.000000 -0.000119 0.000017 0.002347 -89.149834 322.776093
[L_front_hand]
1 241.149185 -0.042021 -3.300071 -177.733521 -0.056157 -80.028175 241.171753
2 241.149185 -0.042021 -3.300071 -177.732742 -0.054958 -80.056595 241.171753
[L_weapon_bone]
1 156.183838 0.000000 0.000000 0.000014 0.000007 0.000001 156.183838
2 156.183838 0.000000 0.000000 0.000014 0.000007 0.000001 156.183838
[L_front_hand01_01]
1 86.095154 20.947098 -0.655860 0.405585 -0.442306 -4.620490 88.609184
2 86.095154 20.947098 -0.655860 0.405585 -0.442306 -4.620490 88.609184
[L_front_hand02_01]
1 86.935165 -11.437475 24.513514 116.959450 3.630817 1.495453 91.046425
2 86.935165 -11.437475 24.513514 116.959450 3.630817 1.495453 91.046425
[L_front_hand03_01]
1 86.637497 -14.123976 -20.424902 -118.420097 -4.656303 -0.152527 90.126129
2 86.637497 -14.123976 -20.424902 -118.420090 -4.656302 -0.152527 90.126129
[L_front_hand01_02]
1 71.020905 -0.000179 0.000030 0.000004 -0.000005 -8.379269 71.020905
2 71.020905 -0.000179 0.000030 0.000004 -0.000005 -8.379269 71.020905
[L_front_hand02_02]
1 71.020927 -0.000119 0.000060 -0.000005 -0.000004 -8.379259 71.020927
2 71.020927 -0.000119 0.000060 -0.000005 -0.000004 -8.379259 71.020927
[L_front_hand03_02]
1 71.020905 -0.000060 0.000060 0.000015 -0.000040 -8.379267 71.020905
2 71.020905 -0.000060 0.000060 0.000015 -0.000040 -8.379267 71.020905
[R_forearm]
1 322.776428 -0.000060 0.000030 0.207856 -0.034204 -81.462494 322.776428
2 322.776428 -0.000060 0.000030 0.207812 -0.034470 -81.315819 322.776428
[R_front_hand]
1 238.847015 -0.006795 2.210259 -1.672657 -0.416886 -92.753014 238.857239
2 238.847015 -0.006795 2.210259 -1.673317 -0.418553 -92.805885 238.857239
[R_weapon_bone]
1 155.664093 0.002503 -0.000030 0.003487 0.001180 -90.988930 155.664078
2 155.664093 0.002503 -0.000030 0.003487 0.001180 -90.988930 155.664078
[R_front_hand01_01]
1 87.624611 14.231146 22.918642 -116.960213 3.496675 -1.324139 91.683487
2 87.624611 14.231146 22.918642 -116.960213 3.496675 -1.324139 91.683487
[R_front_hand02_01]
1 89.356956 14.367283 -19.491137 118.419647 -4.257089 0.609827 92.579636
2 89.356956 14.367283 -19.491137 118.419647 -4.257089 0.609827 92.579636
[R_front_hand03_01]
1 87.286232 -22.307278 -0.143439 -0.387970 -0.231462 4.232001 90.091743
2 87.286232 -22.307278 -0.143439 -0.387970 -0.231462 4.232001 90.091743
[R_front_hand01_02]
1 71.020905 0.000060 0.000119 -0.000005 -0.000020 8.379271 71.020905
2 71.020905 0.000060 0.000119 -0.000005 -0.000020 8.379271 71.020905
[R_front_hand02_02]
1 71.020844 -0.000030 -0.000119 0.000000 -0.000021 8.379271 71.020836
2 71.020844 -0.000030 -0.000119 0.000000 -0.000021 8.379271 71.020836
[R_front_hand03_02]
1 71.020905 0.000000 0.000030 -0.000001 -0.000020 8.379275 71.020905
2 71.020905 0.000000 0.000030 -0.000001 -0.000020 8.379275 71.020905
[null_rope01_connect]
1 328.732483 0.000000 -0.000238 114.834526 -73.416145 -85.415230 328.732483
2 328.732483 0.000000 -0.000238 114.316628 -73.417259 -85.890091 328.732483
[Rope1_Seg01]
1 0.000000 0.000000 0.000000 76.196991 39.918571 88.813560 0.000000
2 0.000000 0.000000 0.000000 75.849510 36.388783 87.687729 0.000000
[Rope1_Seg02]
1 139.999863 -0.000179 0.000000 43.991859 -19.063246 61.898140 139.999863
2 139.999863 -0.000179 0.000000 46.786896 -18.049927 58.852505 139.999863
[Rope1_Seg03]
1 139.999924 0.000060 -0.000060 34.182621 5.682624 10.222073 139.999924
2 139.999924 0.000060 -0.000060 37.181477 6.463619 11.001740 139.999924
[Rope1_Seg04]
1 139.999924 -0.000060 -0.000119 58.824520 35.986752 22.756428 139.999924
2 139.999924 -0.000060 -0.000119 55.740627 39.461636 21.042534 139.999924
[Rope1_Seg05]
1 139.999832 0.000119 -0.000060 2.013919 30.093945 -14.621205 139.999832
2 139.999832 0.000119 -0.000060 1.291781 27.699677 -14.057307 139.999832
[Rope1_Seg06]
1 139.999954 0.000119 -0.000060 -0.459783 11.851673 -6.837206 139.999954
2 139.999954 0.000119 -0.000060 -0.469582 11.158294 -6.447945 139.999954
[Rope1_Seg07]
1 139.999985 0.000060 0.000000 -0.248391 4.385158 -2.522303 139.999985
2 139.999985 0.000060 0.000000 -0.232128 4.004640 -2.297863 139.999985
[Rope1_Seg09]
1 121.602913 0.000119 -0.000089 -89.793175 -1.359789 0.847147 121.602913
2 121.602913 0.000119 -0.000089 -89.793175 -1.359789 0.847147 121.602913
[L_mid_hand01]
1 103.859421 1.038730 8.195221 104.352036 0.341479 -0.444583 104.187431
2 103.859421 1.038730 8.195221 104.352036 0.341479 -0.444583 104.187431
[L_mid_hand02]
1 105.572853 -4.139662 -10.864139 -135.608444 3.905687 -3.381056 106.211075
2 105.572853 -4.139662 -10.864139 -135.608444 3.905687 -3.381056 106.211075
[L_mid_hand03]
1 104.641464 17.579376 -3.913581 -18.761518 -0.324361 2.942913 106.179977
2 104.641464 17.579376 -3.913581 -18.761515 -0.324361 2.942912 106.179977
[null_rope02_connect]
1 328.732849 0.000179 -0.000119 130.241959 84.150246 -89.027687 328.732849
2 328.732849 0.000179 -0.000119 129.221512 84.210907 -89.245155 328.732849
[Rope2_Seg01]
1 0.000076 0.000110 0.000153 -7.416130 51.930092 104.849899 0.000203
2 0.000076 0.000110 0.000153 -7.235326 51.864304 105.053970 0.000203
[Rope2_Seg02]
1 139.999741 -0.000060 -0.000119 -13.919563 -44.900990 -23.551897 139.999756
2 139.999741 -0.000060 -0.000119 -14.654763 -46.660721 -25.258244 139.999756
[Rope2_Seg03]
1 140.000107 0.000030 0.000000 -30.767958 -26.441568 -33.583752 140.000107
2 140.000107 0.000030 0.000000 -30.277864 -24.631912 -32.894432 140.000107
[Rope2_Seg04]
1 139.999802 0.000000 -0.000060 -19.617184 -10.911936 -27.500134 139.999802
2 139.999802 0.000000 -0.000060 -19.803928 -11.090389 -28.209383 139.999802
[Rope2_Seg05]
1 139.999985 -0.000060 0.000119 -14.561062 -1.747187 -36.171669 139.999985
2 139.999985 -0.000060 0.000119 -14.085513 -1.171950 -35.593971 139.999985
[Rope2_Seg06]
1 139.999893 -0.000030 -0.000119 -2.783752 3.750084 -14.875908 139.999893
2 139.999893 -0.000030 -0.000119 -2.622142 3.693903 -14.464412 139.999893
[Rope2_Seg07]
1 139.999893 0.000060 -0.000060 -0.463123 1.829238 -6.147094 139.999893
2 139.999893 0.000060 -0.000060 -0.431446 1.767218 -5.918452 139.999893
[Rope2_Seg09]
1 121.338966 0.000089 -0.000060 33.793236 -1.359788 -0.847141 121.338966
2 121.338966 0.000089 -0.000060 33.793236 -1.359788 -0.847141 121.338966
[R_mid_hand01]
1 104.680779 11.144459 -10.335981 -47.384258 2.963522 5.452604 105.778534
2 104.680779 11.144459 -10.335981 -47.384254 2.963522 5.452603 105.778534
[R_mid_hand02]
1 104.070427 2.443552 8.231699 75.626297 -2.250001 1.111093 104.424065
2 104.070427 2.443552 8.231699 75.626305 -2.250002 1.111093 104.424065
[R_mid_hand03]
1 106.028137 -11.221827 -5.996406 -164.381912 2.495983 -6.140520 106.788818
2 106.028137 -11.221827 -5.996406 -164.381927 2.495984 -6.140520 106.788818
[spine02]
1 129.756927 0.001550 0.000119 -3.457475 -3.018588 45.475357 129.756927
2 129.756927 0.001550 0.000119 -3.479124 -3.002023 45.865036 129.756927
[spine03]
1 79.115631 0.000000 -0.000119 5.373960 8.457516 50.351662 79.115631
2 79.115631 0.000000 -0.000119 5.417633 8.493141 50.715324 79.115631
[pelvis]
1 169.435242 0.051022 0.000000 -7.280168 -2.849531 13.982492 169.435257
2 169.435242 0.051022 0.000000 -7.351802 -2.864271 14.130672 169.435257
[null_rope03_connect]
1 -1.257226 -2.466202 137.391083 152.177353 -84.367615 -131.564728 137.418976
2 -1.257226 -2.466202 137.391083 151.507507 -84.316315 -131.879517 137.418976
[null_rope04_connect]
1 -1.259640 -2.480268 -137.844437 152.177353 -84.367615 -131.564728 137.872513
2 -1.259640 -2.480268 -137.844437 151.507507 -84.316315 -131.879517 137.872513
[Rope3_Seg01]
1 0.000010 0.000038 -0.000114 -176.711685 77.972939 -111.223122 0.000121
2 0.000010 0.000038 -0.000114 -175.779190 77.574821 -110.450752 0.000121
[Rope3_Seg02]
1 139.999924 -0.000119 0.000060 -8.559678 -16.796846 9.094054 139.999924
2 139.999924 -0.000119 0.000060 -8.809031 -17.139942 9.363955 139.999924
[Rope3_Seg03]
1 139.999924 -0.000119 0.000119 -17.155878 -41.082767 19.356163 139.999924
2 139.999924 -0.000119 0.000119 -17.520592 -41.691952 19.799929 139.999924
[Rope3_Seg04]
1 139.999924 0.000119 0.000000 -1.377842 -25.852228 5.409462 139.999924
2 139.999924 0.000119 0.000000 -1.247063 -25.492407 5.270104 139.999924
[Rope3_Seg05]
1 139.999924 -0.000238 0.000060 8.328472 -54.778923 11.993305 139.999924
2 139.999924 -0.000238 0.000060 8.488039 -55.771870 12.469942 139.999924
[Rope3_Seg06]
1 139.999893 -0.000119 -0.000060 11.311188 -49.904259 29.949806 139.999893
2 139.999893 -0.000119 -0.000060 11.411964 -48.758831 29.530184 139.999893
[Rope3_Seg07]
1 139.999771 0.000060 -0.000119 3.256843 -5.855448 6.675836 139.999771
2 139.999771 0.000060 -0.000119 3.206266 -5.744945 6.569458 139.999771
[Rope3_Seg08]
1 139.999985 -0.000060 0.000000 1.545702 -2.092963 2.694510 139.999985
2 139.999985 -0.000060 0.000000 1.536653 -2.073637 2.672162 139.999985
[Rope3_Seg09]
1 90.185997 -0.000179 -0.000060 89.793228 -1.359877 -0.847183 90.185997
2 90.185997 -0.000179 -0.000060 89.793228 -1.359877 -0.847183 90.185997
[R_rear_hand01]
1 103.366196 -6.073594 -10.757982 -156.049316 6.070419 -2.795869 104.101845
2 103.366196 -6.073594 -10.757982 -156.049316 6.070418 -2.795869 104.101845
[R_rear_hand02]
1 100.509819 12.039542 -7.992327 -38.708435 1.958051 5.461186 101.543350
2 100.509819 12.039542 -7.992327 -38.708427 1.958051 5.461185 101.543350
[R_rear_hand03]
1 101.539970 5.215704 5.435467 84.307625 -2.361032 4.099037 101.819031
2 101.539970 5.215704 5.435467 84.307632 -2.361033 4.099038 101.819031
[Rope4_Seg01]
1 0.000019 0.000076 -0.000153 87.856987 80.594894 -74.455536 0.000172
2 0.000018 0.000075 -0.000154 87.511902 80.279022 -74.690033 0.000172
[Rope4_Seg02]
1 139.999985 0.000060 0.000119 4.210979 4.618280 -12.673817 139.999985
2 139.999985 0.000060 0.000119 4.300275 4.729796 -12.893764 139.999985
[Rope4_Seg03]
1 139.999924 0.000000 -0.000238 5.271562 10.002113 -40.584736 139.999924
2 139.999924 0.000000 -0.000238 5.242728 10.186851 -41.519897 139.999924
[Rope4_Seg04]
1 139.999985 0.000000 0.000119 -2.512968 3.907014 -40.927341 139.999985
2 139.999985 0.000000 0.000119 -2.569523 3.790817 -40.408520 139.999985
[Rope4_Seg05]
1 139.999802 -0.000060 -0.000119 -7.154821 5.104268 -27.286724 139.999802
2 139.999802 -0.000060 -0.000119 -7.374497 5.232008 -27.735975 139.999802
[Rope4_Seg06]
1 139.999924 0.000000 0.000060 -22.523985 13.763674 -50.553352 139.999924
2 139.999924 0.000000 0.000060 -22.523378 13.889474 -50.352013 139.999924
[Rope4_Seg07]
1 139.999802 0.000000 0.000000 -7.321354 11.329884 -17.966585 139.999802
2 139.999802 0.000000 0.000000 -7.107477 11.160028 -17.547489 139.999802
[Rope4_Seg08]
1 139.999924 0.000000 0.000119 -2.790389 3.412514 -4.294313 139.999924
2 139.999924 0.000000 0.000119 -2.749368 3.332343 -4.184568 139.999924
[Rope4_Seg09]
1 90.185791 0.000060 0.000060 -135.617828 2.228885 0.850567 90.185791
2 90.185791 0.000060 0.000060 -135.617828 2.228885 0.850567 90.185791
[L_rear_hand01]
1 101.696655 -8.392275 -7.654577 -38.746338 0.246096 177.290207 102.329041
2 101.696655 -8.392275 -7.654577 -38.746338 0.246096 177.290207 102.329041
[L_rear_hand02]
1 102.726799 -1.568258 5.773216 84.314880 -1.139137 176.250763 102.900848
2 102.726799 -1.568258 5.773216 84.314865 -1.139137 176.250763 102.900848
[L_rear_hand03]
1 104.552910 9.721220 -10.420293 -155.747955 -4.630845 179.564758 105.519653
2 104.552910 9.721220 -10.420293 -155.747955 -4.630845 179.564758 105.519653
